<svg xmlns="http://www.w3.org/2000/svg" viewBox="0 0 600 600">
<style type="text/css">
	.st0{fill:#060606;}
	.st1{fill:#F8F8F8;}
	.st2{fill:#060403;}
	.st3{fill:#C71F2F;}
	.st4{fill:#DCBCA3;}
	.st5{fill:#EDAF2A;}
	.st6{fill:#C61F2E;}
	.st7{fill:#FCFCFC;}
	.st8{fill:#ECAF29;}
	.st9{fill:#981F24;}
	.st10{fill:#991F24;}
	.st11{fill:#050505;}
</style>
	<g>
		<path class="st0" d="M600,370c-0.9,5.1-2,10.2-2.8,15.3c-8.2,52.9-33.8,95.8-75,129.4c-38.2,31.2-82.1,49.8-130.5,58.3
			c-29.6,5.3-59.3,8.5-89.4,7.9c-41.7-0.8-82.1-8.1-119.3-28c-45.2-24.3-73.3-62.5-88.9-110.6c-0.5-1.4-0.9-2.9-1.4-4.5
			c-3.3,2-6.3,4.3-9.7,5.8c-12,5.3-24.9,1.6-32.2-10c-4.6-7.2-7.8-15.3-11.9-23.7c-3.4,0-7.4,0.1-11.4,0c-12.9-0.5-21.6-7.5-25.6-20
			c-0.5-1.6-1.3-3.2-2-4.8c0-6.3,0-12.7,0-19c2.7-8.3,5.2-16.6,8-24.9c3.9-11.5,11.3-19,24-20.2c1.1-0.1,2.3-1.6,3-2.7
			c4.6-7.1,9-14.4,13.7-21.4c11.2-16.6,25.9-18.8,41.9-6c11.3-39.2,29.6-74.9,52.3-108.6c-2.4-1-4.5-1.9-6.6-2.9
			c-22.5-10.2-31.2-31.8-21.9-54.7c5.4-13.3,15-23,27-30.6c13.8-8.8,29.1-13.5,46-16.5c0-4.3-0.5-8.8,0.1-13.1
			c3.5-24.3,21.4-41.3,46.4-44.5c26.1-3.3,50.6,3,74.4,12.8c32.8,13.5,59.8,34.5,80.9,63c1.4,1.9,4,3.4,6.3,4.2
			c49.6,16.9,94.7,41.4,132.5,78.3c36.7,35.8,60.2,78.7,68.7,129.5c1,6.1,1.5,12.2,2.3,18.3c0.1,1,0.7,2,1,3L600,370L600,370z"/>
		<path class="st1" d="M97.2,416c-3.6,3.9-7,7.9-10.7,11.7c-10.9,11.2-22.9,9.6-29.4-4.6c-3.3-7.2-8.5-14.1-6.7-24
			c-6.8,0-13.1-0.2-19.4,0c-14.9,0.7-18.9-8.7-19.9-18.7c-1.4-14.9,3.3-28.6,10-41.7c3.2-6.3,9.1-7.7,17.8-5.9
			c6.6-10.5,12.9-21,19.6-31.2c7.4-11.2,18.8-10.9,26.2,0.3c3.3,5,6.7,9.8,10.7,15.6c5.2-26.9,13.8-51.4,25.1-74.9
			c11.3-23.6,24.9-45.9,40.4-67.1c-5.6-1.6-11.1-2.7-16.4-4.6c-22.3-8-29.3-27.7-17.2-48.1c7.8-13.2,19.8-21.7,33.9-26.7
			c12.6-4.4,25.8-7.2,38.9-10.7c-2.3-7.9-3.5-16.9-0.6-26c5.3-17,17.8-25.7,34.6-28.5c22.4-3.8,43.8,1.7,64.4,9.5
			c34.5,13,62.7,34.7,84.1,64.9c1.2,1.7,3.5,2.9,5.6,3.6c48,15.7,91.8,38.9,128.8,73.8c36.2,34.1,60.3,75.2,68.4,124.6
			c10.4,63.1-0.2,121.5-42.3,171.6c-29.8,35.5-68.1,59-111.9,72.8c-57.3,18-116.1,23.5-175.7,14c-40.8-6.5-77.6-22.2-107.2-52.1
			c-25.1-25.3-39.8-56.2-48.3-90.4c-0.5-2.1-1-4.2-1.4-6.3C98.1,416.7,97.6,416.3,97.2,416L97.2,416z"/>
		<path class="st2" d="M72.2,422.2c-3-7-5.6-12.5-7.5-18.3c-0.4-1.1,1.3-3.3,2.5-4.6c3.9-4,8-7.9,12.9-12.6
			c-13.6-0.6-25.9-1.1-38.2-1.6c-3-0.1-6-0.1-9-0.2c-6.8-0.2-7.6-0.8-7.8-7.8c-0.3-10.9,3.4-20.9,7.7-30.3
			c15.4,2.6,30.4,5.2,45.4,7.7c0.1-0.3,0.2-0.6,0.3-0.9c-8.2-5.3-16.5-10.5-25.6-16.3c6.2-10,12.1-19.6,18.3-29.6
			c9,12.2,15.9,25.6,30.4,32.6c7.3-66.1,37.4-121.4,76.9-172.8c-6.8-0.8-13.7-1.4-20.4-2.6c-4.7-0.9-9.4-2.2-13.8-4.1
			c-12-5.2-16-15-11.6-27.4c3.8-10.6,11.6-17.8,20.9-23.3c15-9,31.7-12.5,48.9-14.1c4-0.4,7.9-0.5,12.3-0.8
			c-1.8-3.7-3.6-6.9-4.9-10.4c-8.4-21.9,3.1-41.5,26.3-44.9c19.7-2.9,38.5,1.8,56.7,8.4c34.8,12.6,63,34.1,83.8,65
			c1.1,1.7,3.4,3,5.5,3.6c45.6,14.3,87.3,35.8,123.2,67.8c39.7,35.4,65,78.9,72.2,132c7.4,54.8-2,105.9-36.7,150.4
			c-26.4,33.9-61.2,56.3-100.8,71.9c-27,10.7-55.3,15.6-83.9,19c-23.9,2.8-47.8,3.9-71.8,2.1c-35.4-2.7-69.4-10.6-100-29.5
			c-39.9-24.6-62.7-61.4-74.3-105.9c-2-7.5-3.6-15.2-4.8-22.9c-0.6-4-2.8-4.6-5.4-3.1c-4.7,2.7-9.4,5.7-13.5,9.2
			C81.7,411.8,77.7,416.5,72.2,422.2L72.2,422.2z"/>
		<path class="st3" d="M212.1,533.4c-29.9-12-53.3-31.8-70.4-59c-15.5-24.5-23.6-51.7-27.7-80.1c-2.5-17.5-3.9-35-2.4-52.8
			c2.5-28.4,10.5-55.2,22-81c15.1-34,35.2-64.9,58.3-94c4.3-5.4,8.9-7.2,14.5-8.9c6.9-2.1,13.6-4.8,20.4-7.2l-0.5-1.7
			c-5,1.3-10,2.5-15,3.7c-17.4,4.4-35,6.4-52.8,2.4c-4-0.9-8.1-2.1-11.8-3.9c-5.3-2.5-6.7-6.3-5.4-12c1.9-8,7.2-13.4,13.6-17.9
			c11.5-8.2,24.7-12.3,38.6-13.9c11.9-1.4,23.9-1.6,35.9-2.2c1.6-0.1,3.3,0.5,4.7,1.2c16.6,7.8,34.3,11.4,52.3,13.7
			c0.4,0.1,0.9-0.3,2.6-1c-2.5-0.8-3.9-1.3-5.3-1.8c-16.3-5.8-33-10.6-48.6-17.7c-11.7-5.3-17.9-16.2-18-29.5
			c0-9.3,5.9-16.1,15.6-19c13.1-3.9,26.2-1.8,39,1.4c41.7,10.3,74.9,32.8,98.4,69.2c1.2,1.8,3.7,3.3,5.9,4
			c44,13.1,84.1,33.5,118.9,63.5c11.3,9.7,21.4,20.9,32.3,31.7c-1.8,1.5-2.6,2.4-3.5,2.9c-31.5,19.7-62.9,39.5-94.5,59.1
			c-1.6,1-4,1.6-6,1.3c-39.5-4.9-78.9-9.9-118.3-14.9c-3.4-0.4-6.9-0.7-10.3-1.1v36.7h46.9c-6,10.6-9,20.9-8.1,32.2
			c-2.4,2.6-6.2,3-8.7,5.6c-5.4,5.6-7.5,12.5-8.2,19.9c-1.5,15.7,1.7,30.3,10.4,43.7c5,7.7,11.4,12.8,20.8,13.8
			c0.7,0.1,1.3,0.4,1.8,0.7c1,3.3-2,2.9-3.5,3.4c-16.9,4.9-33.1,11.4-48.5,19.7c-35,18.9-63.4,44.6-81.4,80.7
			C214.7,527.3,213.9,530.5,212.1,533.4L212.1,533.4z"/>
		<path class="st4" d="M212.1,533.4c0.5-2.2,0.6-4.6,1.6-6.5c16.1-34.5,42.1-59.9,74.3-79.2c18-10.9,37.4-18.9,57.6-24.7
			c1.6-0.5,3.1-1.2,4.6-1.8c0.1-0.2,0.3-0.4,0.4-0.6c0.8-0.6,1.7-1,2.6-1.3c0.5-0.2,1-0.3,1.5-0.4c3.7-0.6,7.3-1.9,11-2.6
			c2.2-0.4,4.5-1.1,6.5,0.8c0.4,1.8,0,4.5,1.2,5.4c17,13.4,34.1,26.7,51.5,39.6c9.6,7.1,19.8,13.5,29.7,20.3
			c4.9,3.4,9.5,2.9,13.4-1.4c10.7-11.9,21.1-23.9,31.7-35.9c0.7-0.8,1.3-1.6,1.9-2.3c2.1-0.6,3.4,0.8,4.7,2.1
			c6.4,6.7,12.3,13.7,16.4,22.1c0.9,1.8,1.9,3.5,0.6,5.6c-26.3,31.3-61.1,48.5-98.9,61.1c-20.7,6.9-42,10.9-63.7,13.1
			c-16.2,1.6-32.4,3.7-48.6,3.7C277.6,550.5,244.1,546.4,212.1,533.4L212.1,533.4z"/>
		<path class="st5" d="M550.2,400c-12.4,2.2-23,4-33.6,5.9c-19,3.3-37.9,6.7-56.9,9.6c-21.1,3.3-42.3,6.4-63.5,9.3
			c-7.4,1-14.5-0.5-21.3-5c1.7-3,3.1-5.9,4.9-8.6c11.7-17.4,23.3-34.8,35.2-52c2.7-3.9,6.5-7.1,9.8-10.6c7.5-7.8,16.3-10.2,26.8-7.4
			c31.4,8.6,60,22.6,84.8,43.7C541.4,389,545.1,394.3,550.2,400L550.2,400z"/>
		<path class="st6" d="M522.9,472.5c-2.3-9.5-8.8-16.3-14.8-23.5c-2-2.4-4.5-4.2-6.8-6.3c7.3-10.9,14.5-21.9,22-32.7
			c1-1.5,3.4-2.4,5.3-2.8c6.7-1.3,13.5-2.2,20.2-3.4c1.4-0.2,2.8-0.8,5.1-1.5c-10.4-21.3-29.8-31.3-48.3-43.1
			c16.2-9.7,26.9-23.1,28-42c1.2-19.2-7.8-33.5-24.9-44.3c13.6-6,26.4-11.6,39.6-17.4c6.9,13.2,12,26.5,15.2,40.4
			c11,47.1,9.3,93.2-12.7,137.2C543.6,447.7,534.6,461.1,522.9,472.5L522.9,472.5z"/>
		<path class="st7" d="M435.2,336.6c-4.5-8.3-5.4-17.4-3.7-26.8c0.3-1.8,2.2-4.1,3.9-4.9c21.8-9.8,43.7-19.4,65.7-28.8
			c2-0.9,5.3-0.5,7.2,0.6c14.9,9,22.9,22.1,21.9,39.7c-1,18.2-10.8,31-26.5,39.4c-1.4,0.8-4.1,0.2-5.8-0.7
			c-15.4-7.5-31-14.5-48-17.6C445.2,336.9,440.5,337,435.2,336.6L435.2,336.6z"/>
		<path class="st7" d="M428.6,306.4c-2.5,11-1.4,21.8,3.8,32.3c-13.6,8.7-22.8,21.4-32.1,33.9c-0.8,1.1-2.2,2.1-3.5,2.5
			c-25.6,6.4-53.9-8.2-59.2-34.4c-2.4-11.8,0-22.8,6.5-32.9c0.8-1.2,2.9-2.4,4.4-2.4c26.3,0.1,52.6,0.4,79,0.6
			C427.8,306.1,428.1,306.3,428.6,306.4L428.6,306.4z"/>
		<path class="st8" d="M519.9,409c-0.8,1.7-1.3,2.9-2,4c-14.1,21.6-29.3,42.5-47.4,61c-9,9.2-9.7,9.6-20,2.1
			c-20.9-15.1-41.3-30.9-61.9-46.4c-0.3-0.3-0.5-0.7-0.9-1.3C432.4,426.6,475.4,414.7,519.9,409L519.9,409z"/>
		<path class="st9" d="M350.1,421.2c-11.3,0.2-18.9-5.6-24.6-14.9c-10.8-17.4-14-35.9-7.5-55.5c2.4-7.3,7.1-12.7,15.4-13.8
			c3,19.7,14.6,32.5,32.5,40c4.8,9.6,0.9,32.6-7.1,39.7c-1.8,1.6-4,2.2-5.8,3.6v-0.1c-0.9,0.6-2.3-0.2-3.1,1L350.1,421.2
			L350.1,421.2z"/>
		<path class="st3" d="M353.1,420.3c10.5-7.7,12.9-19,13.8-31c0.3-4.1-0.5-8.2-0.9-12.3c9.4,2.6,18.8,4.1,29.5,1.9
			c-7.9,13-15.3,25.2-22.7,37.5c-0.3,0.2-0.6,0.5-0.8,0.8l0.1,0C365.8,418.1,359.4,419.2,353.1,420.3L353.1,420.3z"/>
		<path class="st4" d="M372,417.1c0.3-0.3,0.5-0.5,0.8-0.8C372.5,416.6,372.3,416.8,372,417.1z"/>
		<path class="st10" d="M249.7,392.5c1.7-6.1,2.8-12.5,5.4-18.3c4.3-9.7,12.8-11.9,21.7-6c10.5,7,15,18,17,29.8
			c1.2,7.2,0.9,14.9,0,22.1c-1.3,10.5-8.5,17.1-16.6,16.8c-5.9-0.3-10.4-3.4-13.9-7.7c-8.7-10.5-12.6-22.8-12.3-36.4
			C250.5,392.8,250.1,392.7,249.7,392.5L249.7,392.5z"/>
		<path class="st10" d="M229.4,434.3c-0.4,3.1-0.3,6.4-1.2,9.3c-3.5,12-13.1,14.4-21.7,5.3c-8.2-8.7-13.3-28.9-6-41
			c3.4-5.7,9.1-7.6,14.8-4.1c9.4,5.8,12.1,15.3,13.7,25.4c0.3,1.6,0,3.3,0,5C229.1,434.3,229.3,434.3,229.4,434.3L229.4,434.3z"/>
		<path class="st3" d="M350,421.2c1-0.3,2.1-0.6,3.1-1C352.1,420.5,351.1,420.8,350,421.2z"/>
		<path class="st11" d="M460.9,301.9c7.4,0.1,13.2,6.1,13.1,13.5c-0.1,7.3-6.2,13.2-13.5,13.3c-7.2,0-13.3-6.1-13.4-13.4
			C447,307.7,453.2,301.7,460.9,301.9z"/>
		<path class="st11" d="M383.9,329.2c0-7.4,5.8-13.3,13.3-13.3c7.6,0,13.8,6.1,13.6,13.6c-0.2,7.3-6.4,13.3-13.6,13.2
			C389.8,342.5,383.9,336.6,383.9,329.2L383.9,329.2z"/>
	</g>
</svg>
